
<svg width="512" height="512" viewBox="0 0 512 512" fill="none" xmlns="http://www.w3.org/2000/svg">
  <rect width="512" height="512" rx="128" fill="#1A1F2C"/>
  <path d="M256 154C195.307 154 146 203.307 146 264C146 324.693 195.307 374 256 374C316.693 374 366 324.693 366 264C366 203.307 316.693 154 256 154ZM256 344C211.888 344 176 308.112 176 264C176 219.888 211.888 184 256 184C300.112 184 336 219.888 336 264C336 308.112 300.112 344 256 344Z" fill="#D6BCFA"/>
  <path d="M256 204C256 195.163 263.163 188 272 188H304C312.837 188 320 195.163 320 204V234C320 242.837 312.837 250 304 250H256V204Z" fill="#FFDEE2"/>
  <path d="M256 274C256 282.837 248.837 290 240 290H208C199.163 290 192 282.837 192 274V244C192 235.163 199.163 228 208 228H256V274Z" fill="#FFDEE2"/>
  <path d="M220 136H246C254.837 136 262 143.163 262 152V168H204V152C204 143.163 211.163 136 220 136Z" fill="#F5F0E5"/>
  <path d="M268 136H294C302.837 136 310 143.163 310 152V168H252V152C252 143.163 259.163 136 268 136Z" fill="#F5F0E5"/>
  <path d="M230 358H256C264.837 358 272 365.163 272 374V390H214V374C214 365.163 221.163 358 230 358Z" fill="#F5F0E5"/>
  <path d="M270 358H296C304.837 358 312 365.163 312 374V390H254V374C254 365.163 261.163 358 270 358Z" fill="#F5F0E5"/>
</svg>
